<svg width="120" height="24" viewBox="0 0 120 24" fill="none" xmlns="http://www.w3.org/2000/svg">
<path d="M1.49219 22.4V7.46724H4.22061C4.77008 7.46724 5.13008 7.71684 5.30061 8.21604L5.54219 9.02244C5.7885 8.76324 6.04429 8.52804 6.30956 8.31684C6.57482 8.09604 6.85903 7.90884 7.16219 7.75524C7.47482 7.59204 7.8064 7.46724 8.15692 7.38084C8.51692 7.28484 8.91008 7.23684 9.3364 7.23684C10.2269 7.23684 10.9611 7.47204 11.539 7.94244C12.1264 8.40324 12.5717 9.02244 12.8748 9.80004C13.1211 9.33924 13.4196 8.94564 13.7701 8.61924C14.1301 8.29284 14.5138 8.02884 14.9211 7.82724C15.338 7.62564 15.7738 7.47684 16.2285 7.38084C16.6927 7.28484 17.1522 7.23684 17.6069 7.23684C18.4501 7.23684 19.1985 7.36644 19.8522 7.62564C20.5059 7.87524 21.0506 8.24484 21.4864 8.73444C21.9317 9.21444 22.268 9.80964 22.4953 10.52C22.7227 11.2208 22.8364 12.0176 22.8364 12.9104V22.4H18.4311V12.9104C18.4311 11.3648 17.7775 10.592 16.4701 10.592C15.8732 10.592 15.3759 10.7936 14.978 11.1968C14.5896 11.5904 14.3953 12.1616 14.3953 12.9104V22.4H9.99008V12.9104C9.99008 12.056 9.82429 11.456 9.49271 11.1104C9.16113 10.7648 8.67324 10.592 8.02903 10.592C7.63113 10.592 7.25219 10.6832 6.89219 10.8656C6.54166 11.048 6.21008 11.2928 5.89745 11.6V22.4H1.49219ZM31.4646 7.23684C32.5824 7.23684 33.6009 7.41444 34.5198 7.76964C35.4388 8.12484 36.2251 8.63364 36.8788 9.29603C37.5419 9.95844 38.0535 10.7648 38.4135 11.7152C38.783 12.656 38.9677 13.7168 38.9677 14.8976C38.9677 16.088 38.783 17.1632 38.4135 18.1232C38.0535 19.0736 37.5419 19.8848 36.8788 20.5568C36.2251 21.2192 35.4388 21.7328 34.5198 22.0976C33.6009 22.4528 32.5824 22.6304 31.4646 22.6304C30.3372 22.6304 29.3093 22.4528 28.3809 22.0976C27.4619 21.7328 26.6661 21.2192 25.9935 20.5568C25.3303 19.8848 24.814 19.0736 24.4446 18.1232C24.0846 17.1632 23.9046 16.088 23.9046 14.8976C23.9046 13.7168 24.0846 12.656 24.4446 11.7152C24.814 10.7648 25.3303 9.95844 25.9935 9.29603C26.6661 8.63364 27.4619 8.12484 28.3809 7.76964C29.3093 7.41444 30.3372 7.23684 31.4646 7.23684ZM31.4646 19.3184C32.4782 19.3184 33.2219 18.9584 33.6956 18.2384C34.1788 17.5088 34.4203 16.4048 34.4203 14.9264C34.4203 13.448 34.1788 12.3488 33.6956 11.6288C33.2219 10.9088 32.4782 10.5488 31.4646 10.5488C30.4224 10.5488 29.6598 10.9088 29.1767 11.6288C28.6935 12.3488 28.4519 13.448 28.4519 14.9264C28.4519 16.4048 28.6935 17.5088 29.1767 18.2384C29.6598 18.9584 30.4224 19.3184 31.4646 19.3184ZM44.2556 9.08004C44.5398 8.81124 44.8335 8.56164 45.1367 8.33123C45.4398 8.10083 45.7619 7.90884 46.103 7.75524C46.4535 7.59204 46.8277 7.46724 47.2256 7.38084C47.633 7.28484 48.0735 7.23684 48.5472 7.23684C49.3524 7.23684 50.063 7.38084 50.6788 7.66884C51.304 7.94724 51.8298 8.34084 52.2561 8.84964C52.6824 9.34884 53.0046 9.94884 53.2225 10.6496C53.4403 11.3408 53.5493 12.0944 53.5493 12.9104V22.4H49.144V12.9104C49.144 12.1808 48.9782 11.6144 48.6467 11.2112C48.3151 10.7984 47.8272 10.592 47.183 10.592C46.6998 10.592 46.2451 10.6976 45.8188 10.9088C45.4019 11.1104 44.9946 11.3888 44.5967 11.744V22.4H40.1914V7.46724H42.9198C43.4693 7.46724 43.8293 7.71684 43.9998 8.21604L44.2556 9.08004ZM59.8109 0.843234V12.9248H60.4646C60.7393 12.9248 60.9478 12.8864 61.0899 12.8096C61.232 12.7232 61.3741 12.584 61.5162 12.392L64.3014 8.18724C64.472 7.94724 64.6662 7.76964 64.8841 7.65444C65.102 7.52964 65.3814 7.46724 65.7225 7.46724H69.7583L65.9499 12.7808C65.5899 13.2608 65.1636 13.6544 64.6709 13.9616C64.8888 14.1248 65.0878 14.3168 65.2678 14.5376C65.4478 14.7488 65.6183 14.9888 65.7793 15.2576L69.9288 22.4H65.9499C65.6183 22.4 65.3341 22.3472 65.0972 22.2416C64.8604 22.1264 64.6614 21.9296 64.5004 21.6512L61.7151 16.3664C61.5825 16.1264 61.4451 15.9728 61.303 15.9056C61.1609 15.8288 60.9478 15.7904 60.6636 15.7904H59.8109V22.4H55.4057V0.843234H59.8109ZM74.7913 7.46724V22.4H70.3861V7.46724H74.7913ZM75.2461 3.37764C75.2461 3.73284 75.175 4.06884 75.0329 4.38564C74.8908 4.69284 74.6966 4.96644 74.4503 5.20644C74.204 5.43684 73.915 5.62404 73.5834 5.76804C73.2613 5.90244 72.9156 5.96964 72.5461 5.96964C72.1861 5.96964 71.8498 5.90244 71.5371 5.76804C71.2245 5.62404 70.945 5.43684 70.6987 5.20644C70.4619 4.96644 70.2724 4.69284 70.1303 4.38564C69.9977 4.06884 69.9313 3.73284 69.9313 3.37764C69.9313 3.01284 69.9977 2.67204 70.1303 2.35524C70.2724 2.03844 70.4619 1.76004 70.6987 1.52004C70.945 1.28004 71.2245 1.09284 71.5371 0.958434C71.8498 0.824036 72.1861 0.756836 72.5461 0.756836C72.9156 0.756836 73.2613 0.824036 73.5834 0.958434C73.915 1.09284 74.204 1.28004 74.4503 1.52004C74.6966 1.76004 74.8908 2.03844 75.0329 2.35524C75.175 2.67204 75.2461 3.01284 75.2461 3.37764ZM85.8075 11.4704C85.4759 11.096 85.1159 10.8368 84.7275 10.6928C84.3391 10.5392 83.9317 10.4624 83.5054 10.4624C83.098 10.4624 82.7238 10.544 82.3828 10.7072C82.0417 10.8704 81.7433 11.1344 81.4875 11.4992C81.2412 11.8544 81.047 12.32 80.9049 12.896C80.7628 13.472 80.6917 14.168 80.6917 14.984C80.6917 15.7712 80.7486 16.4336 80.8622 16.9712C80.9759 17.5088 81.1322 17.9456 81.3312 18.2816C81.5396 18.608 81.7859 18.8432 82.0701 18.9872C82.3543 19.1312 82.6717 19.2032 83.0222 19.2032C83.3443 19.2032 83.6333 19.1744 83.8891 19.1168C84.1543 19.0496 84.3959 18.9584 84.6138 18.8432C84.8317 18.728 85.0354 18.584 85.2249 18.4112C85.4238 18.2288 85.618 18.0224 85.8075 17.792V11.4704ZM90.2128 0.843234V22.4H87.4843C86.9349 22.4 86.5749 22.1504 86.4043 21.6512L86.0633 20.5136C85.7696 20.8304 85.4617 21.1184 85.1396 21.3776C84.8175 21.6368 84.467 21.8624 84.088 22.0544C83.7186 22.2368 83.3159 22.376 82.8801 22.472C82.4538 22.5776 81.9896 22.6304 81.4875 22.6304C80.7201 22.6304 80.0096 22.4576 79.3559 22.112C78.7022 21.7664 78.1385 21.2672 77.6649 20.6144C77.1912 19.9616 76.817 19.1648 76.5422 18.224C76.277 17.2736 76.1443 16.1936 76.1443 14.984C76.1443 13.8704 76.2959 12.8384 76.5991 11.888C76.9022 10.928 77.3286 10.1024 77.878 9.41123C78.437 8.71044 79.1049 8.16324 79.8817 7.76964C80.6586 7.37604 81.5159 7.17924 82.4538 7.17924C83.2212 7.17924 83.8654 7.28964 84.3864 7.51044C84.9075 7.73124 85.3812 8.02884 85.8075 8.40323V0.843234H90.2128ZM101.36 13.1408C101.36 12.7856 101.313 12.44 101.218 12.104C101.133 11.768 100.986 11.4704 100.777 11.2112C100.578 10.9424 100.313 10.7264 99.9816 10.5632C99.65 10.4 99.2473 10.3184 98.7737 10.3184C97.94 10.3184 97.2863 10.5632 96.8126 11.0528C96.3389 11.5328 96.0263 12.2288 95.8747 13.1408H101.36ZM95.8179 15.7328C95.96 16.9808 96.3342 17.888 96.9405 18.4544C97.5468 19.0112 98.3284 19.2896 99.2852 19.2896C99.7968 19.2896 100.237 19.2272 100.607 19.1024C100.976 18.9776 101.303 18.8384 101.587 18.6848C101.881 18.5312 102.146 18.392 102.383 18.2672C102.629 18.1424 102.885 18.08 103.15 18.08C103.501 18.08 103.766 18.2096 103.946 18.4688L105.225 20.0672C104.771 20.5952 104.278 21.0272 103.747 21.3632C103.226 21.6896 102.686 21.9488 102.127 22.1408C101.578 22.3232 101.024 22.448 100.465 22.5152C99.9152 22.592 99.3895 22.6304 98.8873 22.6304C97.8547 22.6304 96.8837 22.4624 95.9742 22.1264C95.0742 21.7808 94.2831 21.272 93.601 20.6C92.9284 19.928 92.3931 19.0928 91.9952 18.0944C91.6068 17.096 91.4126 15.9344 91.4126 14.6096C91.4126 13.6112 91.5784 12.6656 91.91 11.7728C92.251 10.88 92.7342 10.0976 93.3595 9.42564C93.9942 8.75363 94.7568 8.22084 95.6473 7.82724C96.5473 7.43364 97.561 7.23684 98.6884 7.23684C99.6642 7.23684 100.555 7.39044 101.36 7.69764C102.175 8.00484 102.871 8.45123 103.449 9.03683C104.036 9.62243 104.491 10.3424 104.813 11.1968C105.145 12.0416 105.311 13.0016 105.311 14.0768C105.311 14.4128 105.296 14.6864 105.268 14.8976C105.239 15.1088 105.187 15.2768 105.112 15.4016C105.036 15.5264 104.932 15.6128 104.799 15.6608C104.676 15.7088 104.515 15.7328 104.316 15.7328H95.8179ZM119.988 7.46724L114.275 22.4H110.268L104.555 7.46724H108.221C108.534 7.46724 108.794 7.54404 109.003 7.69764C109.221 7.84164 109.368 8.02404 109.443 8.24484L111.49 14.9408C111.67 15.488 111.826 16.0208 111.959 16.5392C112.101 17.0576 112.224 17.576 112.328 18.0944C112.537 17.0576 112.826 16.0064 113.195 14.9408L115.327 8.24484C115.402 8.02404 115.544 7.84164 115.753 7.69764C115.961 7.54404 116.208 7.46724 116.492 7.46724H119.988Z" fill="#F5F5F5"/>
</svg>
