<svg width="160" height="32" viewBox="0 0 160 32" fill="none" xmlns="http://www.w3.org/2000/svg">
<path d="M1.99023 29.8664V9.95599H5.62813C6.36076 9.95599 6.84076 10.2888 7.06813 10.9544L7.39023 12.0296C7.71866 11.684 8.05971 11.3704 8.41339 11.0888C8.76708 10.7944 9.14602 10.5448 9.55023 10.34C9.96708 10.1224 10.4092 9.95599 10.8765 9.84079C11.3565 9.71279 11.8808 9.64879 12.4492 9.64879C13.6365 9.64879 14.6155 9.96239 15.386 10.5896C16.1692 11.204 16.7629 12.0296 17.1671 13.0664C17.4955 12.452 17.8934 11.9272 18.3608 11.492C18.8408 11.0568 19.3523 10.7048 19.8955 10.436C20.4513 10.1672 21.0323 9.96879 21.6387 9.84079C22.2576 9.71279 22.8702 9.64879 23.4765 9.64879C24.6008 9.64879 25.5987 9.82159 26.4702 10.1672C27.3418 10.5 28.0681 10.9928 28.6492 11.6456C29.2429 12.2856 29.6913 13.0792 29.9944 14.0264C30.2976 14.9608 30.4492 16.0232 30.4492 17.2136V29.8664H24.5755V17.2136C24.5755 15.1528 23.7039 14.1224 21.9608 14.1224C21.165 14.1224 20.5018 14.3912 19.9713 14.9288C19.4534 15.4536 19.1944 16.2152 19.1944 17.2136V29.8664H13.3208V17.2136C13.3208 16.0744 13.0997 15.2744 12.6576 14.8136C12.2155 14.3528 11.565 14.1224 10.706 14.1224C10.1755 14.1224 9.67023 14.244 9.19023 14.4872C8.72287 14.7304 8.28076 15.0568 7.86392 15.4664V29.8664H1.99023ZM41.9534 9.64879C43.4439 9.64879 44.8018 9.88559 46.0271 10.3592C47.2523 10.8328 48.3008 11.5112 49.1723 12.3944C50.0565 13.2776 50.7387 14.3528 51.2187 15.62C51.7113 16.8744 51.9576 18.2888 51.9576 19.8632C51.9576 21.4504 51.7113 22.884 51.2187 24.164C50.7387 25.4312 50.0565 26.5128 49.1723 27.4088C48.3008 28.292 47.2523 28.9768 46.0271 29.4632C44.8018 29.9368 43.4439 30.1736 41.9534 30.1736C40.4502 30.1736 39.0797 29.9368 37.8418 29.4632C36.6166 28.9768 35.5555 28.292 34.6587 27.4088C33.7744 26.5128 33.086 25.4312 32.5934 24.164C32.1134 22.884 31.8734 21.4504 31.8734 19.8632C31.8734 18.2888 32.1134 16.8744 32.5934 15.62C33.086 14.3528 33.7744 13.2776 34.6587 12.3944C35.5555 11.5112 36.6166 10.8328 37.8418 10.3592C39.0797 9.88559 40.4502 9.64879 41.9534 9.64879ZM41.9534 25.7576C43.305 25.7576 44.2965 25.2776 44.9281 24.3176C45.5723 23.3448 45.8944 21.8728 45.8944 19.9016C45.8944 17.9304 45.5723 16.4648 44.9281 15.5048C44.2965 14.5448 43.305 14.0648 41.9534 14.0648C40.5639 14.0648 39.5471 14.5448 38.9029 15.5048C38.2587 16.4648 37.9366 17.9304 37.9366 19.9016C37.9366 21.8728 38.2587 23.3448 38.9029 24.3176C39.5471 25.2776 40.5639 25.7576 41.9534 25.7576ZM59.0081 12.1064C59.3871 11.748 59.7787 11.4152 60.1829 11.108C60.5871 10.8008 61.0165 10.5448 61.4713 10.34C61.9387 10.1224 62.4376 9.95599 62.9681 9.84079C63.5113 9.71279 64.0987 9.64879 64.7302 9.64879C65.8039 9.64879 66.7513 9.84079 67.5723 10.2248C68.406 10.596 69.1071 11.1208 69.6755 11.7992C70.2439 12.4648 70.6734 13.2648 70.9639 14.1992C71.2544 15.1208 71.3997 16.1256 71.3997 17.2136V29.8664H65.526V17.2136C65.526 16.2408 65.305 15.4856 64.8629 14.948C64.4208 14.3976 63.7702 14.1224 62.9113 14.1224C62.2671 14.1224 61.6608 14.2632 61.0923 14.5448C60.5365 14.8136 59.9934 15.1848 59.4629 15.6584V29.8664H53.5892V9.95599H57.2271C57.9597 9.95599 58.4397 10.2888 58.6671 10.9544L59.0081 12.1064ZM79.7485 1.12399V17.2328H80.6201C80.9864 17.2328 81.2643 17.1816 81.4538 17.0792C81.6433 16.964 81.8328 16.7784 82.0222 16.5224L85.7359 10.916C85.9633 10.596 86.2222 10.3592 86.5128 10.2056C86.8033 10.0392 87.1759 9.95599 87.6306 9.95599H93.0117L87.9338 17.0408C87.4538 17.6808 86.8854 18.2056 86.2285 18.6152C86.5191 18.8328 86.7843 19.0888 87.0243 19.3832C87.2643 19.6648 87.4917 19.9848 87.7064 20.3432L93.2391 29.8664H87.9338C87.4917 29.8664 87.1128 29.796 86.797 29.6552C86.4812 29.5016 86.2159 29.2392 86.0012 28.868L82.2875 21.8216C82.1106 21.5016 81.9275 21.2968 81.738 21.2072C81.5485 21.1048 81.2643 21.0536 80.8854 21.0536H79.7485V29.8664H73.8749V1.12399H79.7485ZM99.7224 9.95599V29.8664H93.8488V9.95599H99.7224ZM100.329 4.50319C100.329 4.97679 100.234 5.42479 100.045 5.84719C99.8551 6.25679 99.5961 6.62159 99.2677 6.94159C98.9393 7.24879 98.554 7.49839 98.1119 7.69039C97.6824 7.86959 97.2214 7.95919 96.7288 7.95919C96.2488 7.95919 95.8003 7.86959 95.3835 7.69039C94.9667 7.49839 94.594 7.24879 94.2656 6.94159C93.9498 6.62159 93.6972 6.25679 93.5077 5.84719C93.3309 5.42479 93.2424 4.97679 93.2424 4.50319C93.2424 4.01679 93.3309 3.56239 93.5077 3.13999C93.6972 2.71759 93.9498 2.34639 94.2656 2.02639C94.594 1.70639 94.9667 1.45679 95.3835 1.27759C95.8003 1.09839 96.2488 1.00879 96.7288 1.00879C97.2214 1.00879 97.6824 1.09839 98.1119 1.27759C98.554 1.45679 98.9393 1.70639 99.2677 2.02639C99.5961 2.34639 99.8551 2.71759 100.045 3.13999C100.234 3.56239 100.329 4.01679 100.329 4.50319ZM114.411 15.2936C113.969 14.7944 113.489 14.4488 112.971 14.2568C112.453 14.052 111.91 13.9496 111.341 13.9496C110.798 13.9496 110.299 14.0584 109.844 14.276C109.39 14.4936 108.992 14.8456 108.651 15.332C108.322 15.8056 108.063 16.4264 107.874 17.1944C107.684 17.9624 107.59 18.8904 107.59 19.9784C107.59 21.028 107.665 21.9112 107.817 22.628C107.969 23.3448 108.177 23.9272 108.442 24.3752C108.72 24.8104 109.049 25.124 109.427 25.316C109.806 25.508 110.23 25.604 110.697 25.604C111.126 25.604 111.512 25.5656 111.853 25.4888C112.206 25.3992 112.529 25.2776 112.819 25.124C113.11 24.9704 113.381 24.7784 113.634 24.548C113.899 24.3048 114.158 24.0296 114.411 23.7224V15.2936ZM120.284 1.12399V29.8664H116.646C115.914 29.8664 115.434 29.5336 115.206 28.868L114.752 27.3512C114.36 27.7736 113.95 28.1576 113.52 28.5032C113.091 28.8488 112.623 29.1496 112.118 29.4056C111.625 29.6488 111.089 29.8344 110.507 29.9624C109.939 30.1032 109.32 30.1736 108.651 30.1736C107.627 30.1736 106.68 29.9432 105.809 29.4824C104.937 29.0216 104.185 28.356 103.554 27.4856C102.922 26.6152 102.423 25.5528 102.057 24.2984C101.703 23.0312 101.526 21.5912 101.526 19.9784C101.526 18.4936 101.729 17.1176 102.133 15.8504C102.537 14.5704 103.105 13.4696 103.838 12.548C104.583 11.6136 105.474 10.884 106.51 10.3592C107.545 9.83439 108.689 9.57199 109.939 9.57199C110.962 9.57199 111.821 9.71919 112.516 10.0136C113.211 10.308 113.842 10.7048 114.411 11.204V1.12399H120.284ZM135.147 17.5208C135.147 17.0472 135.084 16.5864 134.958 16.1384C134.844 15.6904 134.648 15.2936 134.37 14.948C134.105 14.5896 133.751 14.3016 133.309 14.084C132.867 13.8664 132.33 13.7576 131.699 13.7576C130.587 13.7576 129.716 14.084 129.084 14.7368C128.453 15.3768 128.036 16.3048 127.834 17.5208H135.147ZM127.758 20.9768C127.947 22.6408 128.446 23.8504 129.255 24.6056C130.063 25.348 131.105 25.7192 132.381 25.7192C133.063 25.7192 133.65 25.636 134.143 25.4696C134.636 25.3032 135.071 25.1176 135.45 24.9128C135.842 24.708 136.196 24.5224 136.511 24.356C136.84 24.1896 137.181 24.1064 137.535 24.1064C138.002 24.1064 138.356 24.2792 138.596 24.6248L140.301 26.756C139.695 27.46 139.038 28.036 138.33 28.484C137.636 28.9192 136.916 29.2648 136.17 29.5208C135.438 29.764 134.699 29.9304 133.954 30.02C133.221 30.1224 132.52 30.1736 131.85 30.1736C130.474 30.1736 129.179 29.9496 127.966 29.5016C126.766 29.0408 125.711 28.3624 124.802 27.4664C123.905 26.5704 123.191 25.4568 122.661 24.1256C122.143 22.7944 121.884 21.2456 121.884 19.4792C121.884 18.148 122.105 16.8872 122.547 15.6968C123.002 14.5064 123.646 13.4632 124.48 12.5672C125.326 11.6712 126.343 10.9608 127.53 10.436C128.73 9.91119 130.082 9.64879 131.585 9.64879C132.886 9.64879 134.074 9.85359 135.147 10.2632C136.234 10.6728 137.162 11.268 137.933 12.0488C138.716 12.8296 139.322 13.7896 139.751 14.9288C140.194 16.0552 140.415 17.3352 140.415 18.7688C140.415 19.2168 140.396 19.5816 140.358 19.8632C140.32 20.1448 140.25 20.3688 140.149 20.5352C140.048 20.7016 139.909 20.8168 139.733 20.8808C139.568 20.9448 139.354 20.9768 139.088 20.9768H127.758ZM159.984 9.95599L152.367 29.8664H147.024L139.407 9.95599H144.296C144.713 9.95599 145.06 10.0584 145.338 10.2632C145.628 10.4552 145.824 10.6984 145.925 10.9928L148.654 19.9208C148.894 20.6504 149.102 21.3608 149.279 22.052C149.468 22.7432 149.633 23.4344 149.771 24.1256C150.049 22.7432 150.435 21.3416 150.927 19.9208L153.769 10.9928C153.87 10.6984 154.06 10.4552 154.338 10.2632C154.616 10.0584 154.944 9.95599 155.323 9.95599H159.984Z" fill="black"/>
</svg>
